<svg width="68" height="61" viewBox="0 0 68 61" fill="none" xmlns="http://www.w3.org/2000/svg">
<g clipPath="url(#clip0_1601_2656)">
<path d="M41.9688 41.2227C41.2357 41.2227 40.6406 41.7565 40.6406 42.4141C40.6406 43.0717 41.2357 43.6055 41.9688 43.6055C42.7018 43.6055 43.2969 43.0717 43.2969 42.4141C43.2969 41.7565 42.7018 41.2227 41.9688 41.2227Z" fill="#9D53C3"/>
<path d="M57.707 6.6189H9.42578C6.19489 6.6189 3.56641 8.98453 3.56641 11.8923V44.1658C3.56641 47.0736 6.19489 49.4392 9.42578 49.4392H27.707V54.2908H26.5352C24.9705 54.2908 23.4997 54.8395 22.3924 55.8357C21.2855 56.8323 20.6758 58.156 20.6758 59.5642C20.6758 60.1468 21.2004 60.6189 21.8477 60.6189H45.2852C45.9324 60.6189 46.457 60.1468 46.457 59.5642C46.457 56.6564 43.8286 54.2908 40.5977 54.2908H39.4258V49.4392H57.707C60.9379 49.4392 63.5664 47.0736 63.5664 44.1658V11.8923C63.5664 8.98453 60.9379 6.6189 57.707 6.6189ZM9.42578 8.72827H57.707C59.6457 8.72827 61.2227 10.1476 61.2227 11.8923V38.8923H55.832V14.6345C55.832 14.052 55.3074 13.5798 54.6602 13.5798H45.2852C44.6379 13.5798 44.1133 14.052 44.1133 14.6345V38.8923H38.2475C38.2351 37.8014 38.2036 36.7261 38.1532 35.683C37.9481 31.3876 37.4807 28.5103 37.2377 27.2446C39.6556 25.6424 40.3157 22.6728 38.8376 20.3657L34.7758 14.0343C34.5662 13.708 34.1794 13.5069 33.761 13.5069C33.3421 13.5069 32.9553 13.708 32.7461 14.0343L28.6825 20.3661C27.2891 22.5414 27.783 25.359 29.972 27.0217C29.7184 28.2837 29.2067 31.264 28.9842 35.6809C28.9315 36.7352 28.8981 37.8113 28.8853 38.8923H23.0195V23.072C23.0195 22.9048 22.9756 22.7523 22.9037 22.6168C22.9005 22.6114 22.8987 22.6057 22.8959 22.6003L18.2084 14.1628C18.0098 13.8056 17.6042 13.5798 17.1602 13.5798C16.7161 13.5798 16.3105 13.8056 16.1119 14.1628L11.4244 22.6003C11.4216 22.6057 11.4198 22.6114 11.4171 22.6168C11.3438 22.7536 11.3008 22.9085 11.3008 23.072V38.8923H5.91016V11.8923C5.91016 10.1476 7.48715 8.72827 9.42578 8.72827ZM46.457 38.8923V15.6892H53.4883V17.7986H52.3164C51.6691 17.7986 51.1445 18.2707 51.1445 18.8533C51.1445 19.4358 51.6691 19.908 52.3164 19.908H53.4883V23.072H52.3164C51.6691 23.072 51.1445 23.5442 51.1445 24.1267C51.1445 24.7093 51.6691 25.1814 52.3164 25.1814H53.4883V28.3455H52.3164C51.6691 28.3455 51.1445 28.8176 51.1445 29.4001C51.1445 29.9827 51.6691 30.4548 52.3164 30.4548H53.4883V34.6736H52.3164C51.6691 34.6736 51.1445 35.1457 51.1445 35.7283C51.1445 36.3108 51.6691 36.783 52.3164 36.783H53.4883V38.8923H46.457ZM33.761 28.2725C34.1867 28.2725 34.6106 28.2285 35.0253 28.1461C35.2427 29.4006 35.5623 31.6203 35.7513 34.6736H31.3893C31.5875 31.6224 31.9221 29.368 32.1533 28.0711C32.6724 28.2041 33.213 28.2725 33.761 28.2725ZM33.761 26.1632C31.0826 26.1632 29.3554 23.5396 30.7127 21.4204L33.761 16.671L36.8074 21.42C38.1596 23.5306 36.4563 26.1632 33.761 26.1632ZM31.2817 36.783H35.8543C35.879 37.4759 35.896 38.1808 35.9042 38.8923H31.2291C31.2378 38.1854 31.2556 37.4805 31.2817 36.783ZM18.332 38.8923V24.1267H20.6758V38.8923H18.332ZM13.6445 38.8923V24.1267H15.9883V38.8923H13.6445ZM14.3687 22.0173L17.1602 16.9927L19.9516 22.0173H14.3687ZM43.9123 58.5095H23.2191C23.3912 58.0699 23.6723 57.667 24.0495 57.3271C24.7142 56.7293 25.5967 56.4001 26.5352 56.4001H40.5977C42.1257 56.4001 43.4289 57.2818 43.9123 58.5095ZM37.082 54.2908H30.0508V49.4392H37.082V54.2908ZM57.707 47.3298H9.42578C7.48715 47.3298 5.91016 45.9105 5.91016 44.1658V41.0017H61.2227V44.1658C61.2227 45.9105 59.6457 47.3298 57.707 47.3298Z" fill="#9D53C3"/>
<path d="M36.6562 41.2227H28.6875C27.9539 41.2227 27.3594 41.756 27.3594 42.4141C27.3594 43.0721 27.9539 43.6055 28.6875 43.6055H36.6562C37.3898 43.6055 37.9844 43.0721 37.9844 42.4141C37.9844 41.756 37.3898 41.2227 36.6562 41.2227Z" fill="#9D53C3"/>
</g>
<defs>
<clipPath id="clip0_1601_2656">
<rect width="68" height="61" fill="white"/>
</clipPath>
</defs>
</svg>
